<svg width="24" height="24" viewBox="0 0 24 24" fill="none" xmlns="http://www.w3.org/2000/svg">
<g id="edit-2">
<path id="Vector" d="M4.2946 18.5573L4.29289 18.5557C3.90204 18.1874 3.69216 17.6103 3.76681 16.9458C3.76682 16.9457 3.76684 16.9456 3.76685 16.9455L4.13673 13.7066C4.13673 13.7065 4.13674 13.7065 4.13674 13.7064C4.13675 13.7064 4.13675 13.7063 4.13676 13.7063C4.16421 13.4675 4.25484 13.1649 4.39347 12.8664C4.53247 12.5671 4.70341 12.307 4.86758 12.139L4.86763 12.1391L4.87344 12.1329L13.0834 3.44293L13.0834 3.44292C14.0543 2.41528 14.9847 1.95183 15.8691 1.92686C16.7536 1.90189 17.7089 2.31214 18.7366 3.28302C19.7643 4.25383 20.2277 5.18424 20.2527 6.06867C20.2777 6.95316 19.8674 7.90849 18.8965 8.9362L10.6865 17.6262L10.6845 17.6284C10.3392 17.9983 9.65904 18.3642 9.1591 18.4461L9.1558 18.4467L5.9625 18.9921C5.88514 18.997 5.82528 19.0022 5.77298 19.0068C5.68954 19.014 5.62534 19.0196 5.53999 19.0196C5.04247 19.0196 4.6008 18.8485 4.2946 18.5573ZM13.4465 3.76625L13.4463 3.7664L5.23792 12.4647C5.23762 12.465 5.23733 12.4654 5.23703 12.4657C5.08276 12.628 4.94835 12.8614 4.85189 13.0681C4.75434 13.2772 4.66435 13.5261 4.63468 13.7412L4.63454 13.7412L4.63322 13.7528L4.26362 16.9894C4.26354 16.99 4.26347 16.9906 4.26339 16.9913C4.2111 17.4262 4.30841 17.873 4.63667 18.1831C4.96741 18.4954 5.41493 18.5575 5.83489 18.4939L5.8349 18.494L5.84417 18.4924L9.06417 17.9424L9.06494 17.9423C9.28635 17.9041 9.53348 17.7986 9.73561 17.6899C9.93802 17.581 10.16 17.434 10.3121 17.2744L10.3134 17.2729L18.5234 8.58294L18.5244 8.5819C19.1594 7.90599 19.6904 7.15994 19.7428 6.29223C19.7969 5.39768 19.3382 4.53363 18.3845 3.6372C17.5397 2.82472 16.7322 2.40956 15.93 2.40956C14.94 2.40956 14.1433 3.02843 13.4465 3.76625Z" stroke="#8C949D"/>
<path id="Vector_2" d="M17.381 9.95745L17.3814 9.95749C17.5099 9.97003 17.6117 10.0873 17.603 10.2229C17.5817 10.3519 17.4645 10.4498 17.3399 10.4498H17.3398H17.3397H17.3396H17.3395H17.3394H17.3392H17.3391H17.339H17.3389H17.3388H17.3386H17.3385H17.3384H17.3383H17.3382H17.338H17.3379H17.3378H17.3377H17.3376H17.3374H17.3373H17.3372H17.3371H17.3369H17.3368H17.3367H17.3366H17.3365H17.3363H17.3362H17.3361H17.336H17.3358H17.3357H17.3356H17.3355H17.3353H17.3352H17.3351H17.335H17.3348H17.3347H17.3346H17.3345H17.3343H17.3342H17.3341H17.3339H17.3338H17.3337H17.3336H17.3334H17.3333H17.3332H17.3331H17.3329H17.3328H17.3327H17.3325H17.3324H17.3323H17.3321H17.332H17.3319H17.3318H17.3316H17.3315H17.3314H17.3312H17.3311H17.331H17.3308H17.3307H17.3306H17.3304H17.3303H17.3302H17.33H17.3299H17.3298H17.3297H17.3295H17.3294H17.3293H17.3291H17.329H17.3289H17.3287H17.3286H17.3284H17.3283H17.3282H17.328H17.3279H17.3278H17.3276H17.3275H17.3274H17.3272H17.3271H17.327H17.3268H17.3267H17.3266H17.3264H17.3263H17.3261H17.326H17.3259H17.3257H17.3256H17.3255H17.3253H17.3252H17.325H17.3249H17.3248H17.3246H17.3245H17.3244H17.3242H17.3241H17.3239H17.3238H17.3237H17.3235H17.3234H17.3232H17.3231H17.323H17.3228H17.3227H17.3225H17.3224H17.3223H17.3221H17.322H17.3218H17.3217H17.3216H17.3214H17.3213H17.3211H17.321H17.3209H17.3207H17.3206H17.3204H17.3203H17.3202H17.32H17.3199H17.3197H17.3196H17.3194H17.3193H17.3192H17.319H17.3189H17.3187H17.3186H17.3185H17.3183H17.3182H17.318H17.3179H17.3177H17.3176H17.3175H17.3173H17.3172H17.317H17.3169H17.3167H17.3166H17.3164H17.3163H17.3162H17.316H17.3159H17.3157H17.3156H17.3154H17.3153H17.3152H17.315H17.3149H17.3147H17.3146H17.3144H17.3143H17.3141H17.314H17.3138H17.3137H17.3136H17.3134H17.3133H17.3131H17.313H17.3128H17.3127H17.3125H17.3124H17.3123H17.3121H17.312H17.3118H17.3117H17.3115H17.3114H17.3112H17.3111H17.3109H17.3108H17.3107H17.3105H17.3104H17.3102H17.3101H17.3099H17.3098H17.3096H17.3095H17.3093H17.3092H17.309H17.3089H17.3088H17.3086H17.3085H17.3083H17.3082H17.308H17.3079H17.3077H17.3076H17.3074H17.3073H17.3071H17.307H17.3069H17.3067H17.3066H17.3064H17.3063H17.3061H17.306H17.3058H17.3057H17.3055H17.3054H17.3052H17.3051H17.3049H17.3048H17.3047H17.3045H17.3044H17.3042H17.3041H17.3039H17.3038H17.3036H17.3035H17.3033H17.3032H17.303H17.3029H17.3028H17.3026H17.3025H17.3023H17.3022H17.302H17.3019H17.3017H17.3016H17.3014H17.3013H17.3011H17.301H17.3008H17.3007H17.3006H17.3004H17.3003H17.3001H17.3H17.2998H17.2997H17.2995H17.2994H17.2992H17.2991H17.299H17.2988H17.2987H17.2985H17.2984H17.2982H17.2981H17.2979H17.2978H17.2976H17.2975H17.2974H17.2972H17.2971H17.2969H17.2968H17.2966H17.2965H17.2963H17.2962H17.296H17.2959H17.2958H17.2956H17.2955H17.2953H17.2952C14.4136 10.1526 12.0992 7.96071 11.6545 5.0959C11.6356 4.96146 11.7253 4.8313 11.8681 4.8038C12.0022 4.78727 12.1309 4.87817 12.1567 5.02159C12.5734 7.6634 14.7145 9.69517 17.381 9.95745Z" stroke="#8C949D"/>
<path id="Vector_3" d="M21 22.25H3C2.86614 22.25 2.75 22.1339 2.75 22C2.75 21.8661 2.86614 21.75 3 21.75H21C21.1339 21.75 21.25 21.8661 21.25 22C21.25 22.1339 21.1339 22.25 21 22.25Z" stroke="#8C949D"/>
</g>
</svg>
